<svg xmlns="http://www.w3.org/2000/svg" viewBox="0 0 24 24" fill="#ffffff" aria-hidden="true">
  <path d="M12 0C5.37 0 0 5.37 0 12c0 5.29 3.438 9.77 8.205 11.354.6.113.82-.261.82-.58 0-.285-.01-1.04-.016-2.04-3.338.726-4.042-1.61-4.042-1.61-.546-1.387-1.333-1.757-1.333-1.757-1.09-.745.083-.729.083-.729 1.205.085 1.84 1.238 1.84 1.238 1.07 1.835 2.809 1.305 3.495.998.108-.775.42-1.305.763-1.605-2.665-.305-5.466-1.333-5.466-5.932 0-1.31.468-2.382 1.236-3.222-.124-.304-.536-1.527.117-3.183 0 0 1.008-.323 3.301 1.23a11.47 11.47 0 0 1 3.005-.403c1.02.005 2.047.138 3.005.403 2.292-1.553 3.299-1.23 3.299-1.23.655 1.656.243 2.879.12 3.183.77.84 1.234 1.912 1.234 3.222 0 4.61-2.805 5.624-5.478 5.921.43.37.823 1.102.823 2.222 0 1.606-.014 2.903-.014 3.297 0 .321.218.697.825.578C20.565 21.77 24 17.29 24 12 24 5.37 18.63 0 12 0z" />
</svg>